<?xml version="1.0" encoding="utf-8"?>
<!-- Generator: Adobe Illustrator 15.1.0, SVG Export Plug-In . SVG Version: 6.00 Build 0)  -->
<!DOCTYPE svg PUBLIC "-//W3C//DTD SVG 1.1//EN" "http://www.w3.org/Graphics/SVG/1.1/DTD/svg11.dtd">
<svg version="1.1" id="Layer_1" xmlns="http://www.w3.org/2000/svg" xmlns:xlink="http://www.w3.org/1999/xlink" x="0px" y="0px"
	 width="800px" height="200px" viewBox="0 0 800 200" enable-background="new 0 0 800 200" xml:space="preserve">
<path d="M800,200H0V0h800V200z M178.104,85l4.3-15h-5.7l-4.5,15h-9.3l4.3-15h-5.8l-4.4,15h-8.7l-2,6h8.9l-3.3,12h-8.4l-2,6h8.5
	l-4.3,15h5.8l4.4-15h9.4l-4.4,15h5.8l4.4-15h8.6l1.9-6h-8.6l3.1-12h8.4l2-6H178.104z M167.304,103h-9.7l3.2-12h9.7L167.304,103z
	 M220,83.596C220,71.796,214.836,66,204.303,66H188v57h16.303c10.533,0,15.697-5.337,15.697-17.004V83.596z M204.303,114H198V75
	h6.303c2.2,0,4.082,0.948,5.149,3.148c0.865,1.734,1.548,3.647,1.548,6.047v21.3C211,111.363,208.436,114,204.303,114z M260,66h-10
	v39.496c0,2.467-0.283,4.667-1.148,6.6c-1.134,2.535-2.724,3.801-4.924,3.801s-3.681-1.266-4.814-3.801
	c-0.867-1.933-1.113-4.133-1.113-6.6V66h-10v39.996c0,5.667,1.217,10.135,3.752,13.4c2.732,3.666,6.808,5.5,12.275,5.5
	c5.466,0,9.501-1.834,12.236-5.5c2.533-3.266,3.737-7.733,3.737-13.4V66z M300,66h-10v33.696L279.802,66H269v58h10V90.096
	L288.902,124H300V66z M340,83.596C340,71.796,334.835,66,324.302,66H308v57h16.302c10.533,0,15.698-5.337,15.698-17.004V83.596z
	 M324.302,114H318V75h6.302c2.2,0,4.082,0.948,5.149,3.148c0.865,1.734,1.549,3.647,1.549,6.047v21.3
	C331,111.363,328.435,114,324.302,114z M379,114h-19V99h15v-9h-15V75h19v-9h-30v58h30V114z M419,114h-19V99h15v-9h-15V75h19v-9h-30
	v58h30V114z M457,95.996c-1.867-2.066-5.1-4.166-9.7-6.3c-3.134-1.4-5.3-2.5-6.5-3.3c-2.467-1.733-3.7-3.666-3.7-5.8
	c0-4.133,2.2-6.098,6.601-6.098c3.933,0,6.1,2.502,6.5,6.502h9.3c-0.534-10-5.9-15.402-16.1-15.402c-4.935,0-8.768,1.433-11.5,4.399
	c-2.734,2.967-4.101,6.892-4.101,11.824c0,5.867,2,10.322,6,13.387c0.601,0.535,4.266,2.461,11,5.794c4,1.934,6,4.396,6,7.396
	c0,2-0.649,3.565-1.95,4.698c-1.3,1.135-2.949,1.852-4.949,1.852c-4.067,0-6.4-1.949-7-5.949h-9.5c0.8,10,6.133,15.848,16,15.848
	c5.399,0,9.615-1.691,12.649-4.926c3.033-3.232,4.55-7.588,4.55-12.987C460.6,102.334,459.4,98.663,457,95.996z M500,66h-10v39.496
	c0,2.467-0.285,4.667-1.15,6.6c-1.135,2.535-2.725,3.801-4.926,3.801c-2.199,0-3.679-1.266-4.812-3.801
	c-0.867-1.933-1.112-4.133-1.112-6.6V66h-10v39.996c0,5.667,1.215,10.135,3.75,13.4c2.732,3.666,6.808,5.5,12.274,5.5
	c5.466,0,9.503-1.834,12.237-5.5c2.533-3.266,3.738-7.733,3.738-13.4V66z M539,66h-10v33.696L519.798,66H508v58h11V90.096
	L528.898,124H539V66z M576.997,95.996c-1.867-2.066-5.1-4.166-9.7-6.3c-3.134-1.4-5.3-2.5-6.5-3.3c-2.467-1.733-3.7-3.666-3.7-5.8
	c0-4.133,2.2-6.098,6.601-6.098c3.933,0,6.1,2.502,6.5,6.502h9.3c-0.534-10-5.9-15.402-16.1-15.402c-4.935,0-8.768,1.433-11.5,4.399
	c-2.734,2.967-4.101,6.892-4.101,11.824c0,5.867,2,10.322,6,13.387c0.601,0.535,4.266,2.461,11,5.794c4,1.934,6,4.396,6,7.396
	c0,2-0.649,3.565-1.95,4.698c-1.3,1.135-2.949,1.852-4.949,1.852c-4.067,0-6.4-1.949-7-5.949h-9.5c0.8,10,6.133,15.848,16,15.848
	c5.399,0,9.615-1.691,12.649-4.926c3.033-3.232,4.55-7.588,4.55-12.987C580.597,102.334,579.397,98.663,576.997,95.996z M619,114
	h-19V99h15v-9h-15V75h19v-9h-30v58h30V114z M660,66h-32v10h11v48h10V76h11V66z"/>
</svg>
